<?xml version="1.0" encoding="utf-8"?>
<!-- Generator: Adobe Illustrator 27.7.0, SVG Export Plug-In . SVG Version: 6.00 Build 0)  -->
<svg version="1.1"
	 id="svg2" xmlns:svg="http://www.w3.org/2000/svg" xmlns:dc="http://purl.org/dc/elements/1.1/" xmlns:rdf="http://www.w3.org/1999/02/22-rdf-syntax-ns#" xmlns:cc="http://creativecommons.org/ns#"
	 xmlns="http://www.w3.org/2000/svg" xmlns:xlink="http://www.w3.org/1999/xlink" x="0px" y="0px" viewBox="0 0 1245 156.1"
	 style="enable-background:new 0 0 1245 156.1;" xml:space="preserve">
<g id="g10" transform="matrix(1.3333333,0,0,-1.3333333,0,156.12)">
	<g id="g12" transform="scale(0.1)">
		<path id="path14" d="M2821.9,589.6h-202.6v387h202.6c98,0,176.1-86.4,176.1-192.7C2998,676,2919.9,589.6,2821.9,589.6z
			 M2968.1,448.4l3.3,1.7c18.3,8.3,36.6,19.9,51.5,31.6c91.4,68.1,146.1,179.4,146.1,300.6c0,199.3-147.8,362.1-328.9,362.1h-392
			V31.5h169.4v390.3h3.3c0,0,91.4,0,159.4,0h1.7l1.7-1.7l257.4-388.7h202.6L2968.1,448.4z M3727.1,189.3h-103v792.3h103
			c182.7,0,320.6-177.7,320.6-397C4047.7,367,3909.8,189.3,3727.1,189.3L3727.1,189.3z M3732.1,1142.7h-275.7V29.9h275.7
			c269.1,0,481.7,249.1,481.7,556.4C4213.8,891.9,3999.5,1142.7,3732.1,1142.7z M6419.5,589.6h-202.6v387h202.6
			c98,0,176.1-86.4,176.1-192.7C6595.6,676,6517.5,589.6,6419.5,589.6z M6565.7,448.4l3.3,1.7c18.3,8.3,36.5,19.9,51.5,31.6
			c91.4,68.1,146.2,179.4,146.2,300.6c0,199.3-147.8,362.1-328.9,362.1h-392V31.5h169.4v390.3h3.3c0,0,91.3,0,159.4,0h1.7l1.7-1.7
			l257.5-388.7H6843L6565.7,448.4z M5823.2,1142.7h-710.9V986.6h267.4V29.9h176v956.7h267.4L5823.2,1142.7z M835.4,0v1142.7H666
			V433.5L0,1166V29.9h169.4v697.6l6.6-6.6L835.4,0z M7537.3,169.4c-229.2,0-415.2,186-415.2,415.2c0,229.2,186,415.2,415.2,415.2
			s415.2-186,415.2-415.2C7952.5,357.1,7766.5,169.4,7537.3,169.4z M7537.3,1170.9c-322.2,0-584.6-262.4-584.6-584.6
			c0-322.2,262.4-584.6,584.6-584.6c322.2,0,584.6,262.4,584.6,584.6C8122,908.5,7859.5,1170.9,7537.3,1170.9z M1642.7,169.4
			c-229.2,0-415.2,186-415.2,415.2c0,229.2,186,415.2,415.2,415.2s415.2-186,415.2-415.2C2059.6,357.1,1871.9,169.4,1642.7,169.4
			L1642.7,169.4z M1642.7,1170.9c-322.2,0-584.7-262.4-584.7-584.6c0-322.2,262.4-584.6,584.7-584.6s584.7,262.4,584.7,584.6
			C2229,908.5,1966.5,1170.9,1642.7,1170.9z M4967.9,323.9c-3.3,58.1-29.9,174.4-181,295.7l-132.9,116.3
			c-56.5,44.8-83,93-84.7,149.5c0,64.8,43.2,109.6,108,112.9c1.7,0,83,10,132.9-59.8l1.7-3.3l134.5,91.4l-1.7,3.3
			c-23.2,36.6-127.9,136.2-269.1,129.6c-79.7-3.3-151.1-34.9-201-84.7c-51.5-53.2-76.4-122.9-71.4-204.3
			c5-94.7,59.8-182.7,174.4-275.7L4702.1,485c69.8-56.5,99.7-104.6,103-161.1c3.3-41.5-11.6-81.4-38.2-111.3
			c-23.2-26.6-49.8-38.2-86.4-41.5h-8.3c-104.6,0-147.8,74.7-172.7,119.6l-6.6,11.6l-144.5-69.8c13.3-36.5,91.4-220.9,320.6-220.9
			h3.3c83,5,159.5,38.2,214.3,94.7C4942.9,162.7,4972.8,240.8,4967.9,323.9L4967.9,323.9z M8839.5,488.3l498.3,676V28.2h-169.4
			v611.2l-330.5-440.2l-327.2,440.2V28.2h-169.4V1166L8839.5,488.3"/>
	</g>
</g>
</svg>
