<?xml version="1.0" encoding="utf-8"?>
<!-- Generator: Adobe Illustrator 27.7.0, SVG Export Plug-In . SVG Version: 6.00 Build 0)  -->
<svg version="1.1"
	 id="svg2" xmlns:svg="http://www.w3.org/2000/svg" xmlns:dc="http://purl.org/dc/elements/1.1/" xmlns:rdf="http://www.w3.org/1999/02/22-rdf-syntax-ns#" xmlns:cc="http://creativecommons.org/ns#"
	 xmlns="http://www.w3.org/2000/svg" xmlns:xlink="http://www.w3.org/1999/xlink" x="0px" y="0px" viewBox="0 0 469 74.2"
	 style="enable-background:new 0 0 469 74.2;" xml:space="preserve">
<g id="g10" transform="matrix(1.25,0,0,-1.25,-228.89857,946.53091)">
	<path id="path364" d="M183.1,753.1H209v-17.6h0.2l19.8,17.6h29l-23.8-21.6l27.6-29.6H229l-19.8,21H209v-21h-25.9V753.1z"/>
	<path id="path370" d="M299.2,710.8c11.5,0,10.8,12.9,10.8,17.1s0.1,16-10.8,16c-10.9,0-10.8-11.8-10.8-16S287.6,710.8,299.2,710.8
		 M299.2,754.6c29.4,0,37.4-6.2,37.4-27.2c0-21-8-27.2-37.4-27.2c-29.4,0-37.4,6.2-37.4,27.2C261.8,748.4,269.8,754.6,299.2,754.6"
		/>
	<path id="path376" d="M392.5,721.2v-19.6h26.6v51.2h-26.6v-17.6h-19.1v17.6h-26.6v-51.2h26.6v19.6H392.5z"/>
	<path id="path382" d="M431.7,752.8h27.2v-39c0,0,21.7-0.1,24.6-0.1c2.9,0,4.6,2.6,4.6,2.6v-14.7h-56.4V752.8z"/>
	<path id="path396" d="M551.5,735.8c-5.6,4.5-10.5,6-15.6,6.1c-5.1,0.1-9.7-1.7-9.7-4.8c0-2.4,3.5-3.4,15.6-6
		c10-2.1,16.6-7.2,16.6-16.6c0-10.7-17.8-16.7-33.7-16.7c-11.2,0-19.7,2-27.4,5.4v14.3c4.7-4.9,15.3-7.6,23.5-7.6
		c4.5,0,6.7,0.7,6.7,4.2c0,2.2-2.8,4.2-11.3,5.8c-16.1,3-21.6,7.6-21.6,15.5c0,11.3,14.1,18.1,31.4,18.1c9.4,0,17.9-0.3,25.5-3.8
		L551.5,735.8L551.5,735.8z"/>
	<path id="path402" d="M472.9,731.9l1.9,3.3c-5.6,2.8-7.3,9.8-4.4,13.9c3.1,4.3,11.6,6.2,16.2-0.5c3.9-5.7,0.2-10.6-1.5-12
		C483.3,735.2,472.9,731.9,472.9,731.9"/>
</g>
</svg>
