<svg viewBox="0 0 64 64" fill="none" xmlns="http://www.w3.org/2000/svg">
  <path d="M13.5 11.1C15.3 3.9 19.8.3 27.3.1c5.5-.1 10.5 1.6 14.1 5.3C45.3 9.1 48 15.3 48 22.6c0 9.8-5.5 18.9-13.8 23.1-4.8 2.5-7.1 2.1-9.3.5-1.8-1.4-1.5-5.3-.8-6.9.5-1 1-2 .5-3-.4-.7-1.1-.9-1.6-.9-6.8-.1-10.5-4-13-8.8-2.6-4.8-4.6-8.7-4.6-15.4.1-1.8.6-3.5 1.1-5.1zm32 19.9c3.3-.3 5.8-2.4 6.8-5.6.9-3.3.4-6.3-1.7-8.5-.7-.8-1.1-1.9-1.1-3.2 0-.3 0-.5.1-.7 1.5-6.6-2.1-11-5.5-12.5-2.6-1.1-5.9-1.4-8.1.7-4.1 4.1-2.2 12.8-1.1 14.4.6.9 1.2 1.7 1.2 3.1 0 .8.2 1.4.2 2.1 0 2.9 1 4.9 3.6 6.4 1.9 1.1 4.3 2.2 6.6 3.8zm-10.8 22C32 54.4 32 56.8 33.5 60c2.4 5.8 9.4 6.2 13.7 6.2 5.9 0 12.3-2.6 17-6.6A25.1 25.1 0 0024 56.2c-2.2 0-4.5-.2-6.7-.1-3.9.3-6.2 1.5-10.5 3.9Z" fill="#06B6D4"/>
</svg>