<?xml version="1.0" encoding="utf-8"?>
<!-- Generator: Adobe Illustrator 27.7.0, SVG Export Plug-In . SVG Version: 6.00 Build 0)  -->
<svg version="1.1"
	 id="svg4764" xmlns:svg="http://www.w3.org/2000/svg" xmlns:dc="http://purl.org/dc/elements/1.1/" xmlns:inkscape="http://www.inkscape.org/namespaces/inkscape" xmlns:rdf="http://www.w3.org/1999/02/22-rdf-syntax-ns#" xmlns:cc="http://creativecommons.org/ns#" xmlns:sodipodi="http://sodipodi.sourceforge.net/DTD/sodipodi-0.dtd"
	 xmlns="http://www.w3.org/2000/svg" xmlns:xlink="http://www.w3.org/1999/xlink" x="0px" y="0px" viewBox="0 0 400 67.5"
	 style="enable-background:new 0 0 400 67.5;" xml:space="preserve">
<sodipodi:namedview  bordercolor="#666666" borderopacity="1.0" fit-margin-bottom="0" fit-margin-left="0" fit-margin-right="0" fit-margin-top="0" id="base" inkscape:current-layer="svg4764" inkscape:cx="200" inkscape:cy="33.75517" inkscape:document-units="px" inkscape:pageopacity="0.0" inkscape:pageshadow="2" inkscape:window-height="1001" inkscape:window-maximized="1" inkscape:window-width="1920" inkscape:window-x="-9" inkscape:window-y="-9" inkscape:zoom="3.0100001" pagecolor="#ffffff" showgrid="false" units="px">
	</sodipodi:namedview>
<path id="path2" inkscape:connector-curvature="0" d="M357.9,5.2c1.6,1.6,1.6,4.1,0,5.7l-22.8,22.9l22.8,22.9c1.6,1.6,1.6,4.1,0,5.7
	l-5.1,5.1l-30.9-31c-1.5-1.5-1.5-3.9,0-5.5l30.9-31L357.9,5.2z M398.9,31.2c1.4,1.4,1.4,3.7,0,5.1l-31,31.2l-5.4-5.4
	c-1.4-1.4-1.4-3.8,0-5.2l23-23.1l-22.8-22.9c-1.5-1.6-1.5-4.1,0-5.6l5.2-5.2L398.9,31.2z M309.7,53v0.3h-1v2.5h-0.4v-2.5h-1V53
	L309.7,53L309.7,53z M310,53h0.6l0.8,2.4l0.8-2.4h0.5v2.9h-0.4v-1.7c0-0.1,0-0.2,0-0.3c0-0.1,0-0.3,0-0.4l-0.8,2.4h-0.4l-0.8-2.4
	v0.1c0,0.1,0,0.2,0,0.3l0,0.3v1.7H310L310,53L310,53z M289.7,49.6c6.5,0,11-5.2,11-12.1c0-6.8-4.5-12-11-12
	c-6.4,0-10.9,5.4-10.9,12.2C278.8,44.3,283.3,49.6,289.7,49.6z M291.6,56.5c-5.6,0-10.4-2.8-12.9-8.1v7.6h-7.3v-50l7.3-1.5v22.2
	c2.5-5.4,7.2-8.1,12.9-8.1c9.4,0,16.9,7.3,16.9,19C308.5,49.2,301,56.5,291.6,56.5L291.6,56.5z M233.5,40.7V19.1h7.3v22.2
	c0,4.8,3.1,8.1,8.2,8.1c5.1,0,8.2-3.3,8.2-8.1V19.1h7.3v21.6c0,10.1-6.2,15.7-15.5,15.7C239.7,56.4,233.5,50.7,233.5,40.7z
	 M228.4,56.4c-7.5,0.3-11.7-3.7-11.7-12.5V5.9l7.3-1.5v39.4c0,3.5,1.9,5.1,4.5,5.1h1.9v7.2C229.8,56.3,229.1,56.4,228.4,56.4
	L228.4,56.4z M180.6,37.4c0-11.7,8-18.9,19.2-18.9c5.3,0,9.9,1.7,13.5,5.3l-4.5,5.5c-2.8-2.8-6.1-3.9-9-3.9c-6.7,0-11.5,4-11.5,12
	s4.7,12.1,11.5,12.1c2.9,0,6.2-1.2,9.1-4.1l4.5,5.4c-3.6,3.6-8.2,5.6-13.6,5.6C188.7,56.4,180.6,49.1,180.6,37.4L180.6,37.4z
	 M137.2,52.5l3.3-6.7c2.4,1.8,6.7,3.7,10,3.7c4.1,0,5.7-2,5.7-4.1c0.1-2.5-2-3.4-6.3-4.8c-7.2-2.2-11.3-4.8-11.3-11.5
	c0-6.2,4.7-10.6,13.1-10.6c4.4,0,8.4,1.4,11.6,3.7l-3.3,6.1c-1.9-1.2-5.1-2.9-8.7-2.9c-3.1,0-5,1.2-5,3.7c0,2,1.4,3.3,6,4.7
	c7.8,2.3,11.7,5.3,11.7,11.4c0,7-5.6,11.2-13.4,11.2C145.2,56.4,140.1,54.6,137.2,52.5z M131.9,8.5h7.9L135.2,23h-6.1L131.9,8.5z
	 M104.5,55.8h-7.3V33.5c0-4.6-2.4-8.1-7.3-8.1c-5.3,0-9.1,4.7-9.1,10.7v19.7h-7.3V19.1h7.3v6.5C83,21,87,18.4,91.7,18.4
	c4.9,0,8.9,2.6,11.1,7c3.1-4.8,7.2-7,12.1-7c7.7,0,13.3,5.8,13.3,15.1v22.2h-7.3V33.5c0-4.6-2.4-8.1-7.3-8.1
	c-5.3,0-9.1,4.7-9.1,10.7L104.5,55.8z M48.3,25.4c-6.5,0-11,5.2-11,12.1c0,6.8,4.5,12,11,12c6.4,0,10.9-5.4,10.9-12.2
	C59.2,30.6,54.8,25.4,48.3,25.4z M59.4,48.3c-2.5,5.4-7.2,8.1-12.9,8.1c-9.4,0-16.9-7.3-16.9-19c0-11.7,7.5-18.9,16.9-18.9
	c5.6,0,10.4,2.8,12.9,8.1v-7.6h7.3v36.7h-7.3L59.4,48.3z M0,52.5l3.3-6.7c2.4,1.8,6.7,3.7,10,3.7c4.1,0,5.7-2,5.7-4.1
	c0.1-2.5-2-3.4-6.3-4.8C5.5,38.4,1.4,35.8,1.4,29.1c0-6.2,4.7-10.6,13.1-10.6c4.4,0,8.4,1.4,11.6,3.7l-3.3,6.1
	c-1.9-1.2-5.1-2.9-8.7-2.9c-3.1,0-5,1.2-5,3.7c0,2,1.4,3.3,6,4.7c7.8,2.3,11.7,5.3,11.7,11.4c0,7-5.6,11.2-13.4,11.2
	C8,56.4,2.9,54.6,0,52.5L0,52.5z"/>
</svg>
