<?xml version="1.0" encoding="utf-8"?>
<!-- Generator: Adobe Illustrator 27.7.0, SVG Export Plug-In . SVG Version: 6.00 Build 0)  -->
<svg version="1.1" id="Layer_1" xmlns="http://www.w3.org/2000/svg" xmlns:xlink="http://www.w3.org/1999/xlink" x="0px" y="0px"
	 viewBox="0 0 330 82" style="enable-background:new 0 0 330 82;" xml:space="preserve">
<style type="text/css">
	.st0{stroke:#FFFFFF;stroke-miterlimit:10;}
</style>
<polyline class="st0" points="283.4,5.9 263.4,5.9 258.4,12.4 278.4,12.4 "/>
<path class="st0" d="M313.2,14.5c-1.9,0-3.4,1.5-3.4,3.2c0,1.8,1.5,3.3,3.4,3.3c1.9,0,3.4-1.5,3.4-3.3
	C316.6,15.9,315.1,14.5,313.2,14.5 M313.2,20.4c-1.5,0-2.7-1.2-2.7-2.7c0-1.4,1.2-2.6,2.7-2.6c1.5,0,2.7,1.2,2.7,2.6
	C315.9,19.2,314.7,20.4,313.2,20.4"/>
<path class="st0" d="M314.9,16.9c0-0.3-0.1-0.6-0.4-0.8c-0.3-0.2-0.6-0.2-0.9-0.2H312v3.7h0.5v-1.7h0.7l1.1,1.7h0.6l-1.1-1.7
	C314.4,17.8,314.9,17.6,314.9,16.9 M313.1,17.4h-0.6v-1.1h1c0.5,0,0.9,0.1,0.9,0.6C314.4,17.5,313.7,17.4,313.1,17.4"/>
<path class="st0" d="M55.4,37.5c0-4.6-3.7-8.3-8.3-8.3c-4.6,0-8.3,3.7-8.3,8.3c0,4.6,3.7,8.3,8.3,8.3C51.7,45.8,55.4,42.1,55.4,37.5
	"/>
<path class="st0" d="M83.8,29.2c-4.6,0-8.3,3.7-8.3,8.3c0,4.6,3.7,8.3,8.3,8.3c4.6,0,8.3-3.7,8.3-8.3C92.1,32.9,88.4,29.2,83.8,29.2
	"/>
<polyline class="st0" points="51.3,6 5.8,6 5.8,19.9 20.9,19.9 20.9,55.3 36.2,55.3 36.2,19.9 51.3,19.9 "/>
<path class="st0" d="M57.9,6.1v47.3c0,5.9-2.9,8.2-11.2,8.2V77c14.7,0,26.5-8.9,26.5-23.6l0-47.3"/>
<path class="st0" d="M147.4,5.3c-5.9,0-11.2,2.4-15.1,6.2c-3.9-3.9-9.3-6.2-15.2-6.2c-11.8,0-22.7,9.5-22.7,21.3v30.3h15.2l0-30.3
	c0-4.1,3.3-7.4,7.4-7.4c4.1,0,7.4,3.3,7.4,7.4v30.3H140l0-30.3c0-4.1,3.3-7.4,7.4-7.4s7.4,3.3,7.4,7.4l0,30.3h15.3V26.6
	C170.1,14.8,159.2,5.3,147.4,5.3"/>
<polyline class="st0" points="291.6,36.6 308.6,14.5 289.4,14.5 282,24 274.6,14.5 254.2,14.5 271.7,37.3 252.1,63.1 272,63.1 
	282,49.4 304,78 323.4,78 "/>
<path class="st0" d="M249.9,12.5h2.5l-4.9-6.5H228l17.4,22.7L228,51.3V6.1h-15.3v2.2c-3.9-2.3-8.4-3.5-13.3-3.5
	c-14.8,0-26.8,12-26.8,26.8c0,14.8,12,26.8,26.8,26.8c4.8,0,9.4-1.5,13.3-3.7l0,2.3h31.1l11.5-15.2l5.2,6.6l8.6-10.9 M199.4,43.7
	c-6.7,0-12.2-5.5-12.2-12.2c0-6.8,5.5-12.2,12.2-12.2c6.8,0,12.2,5.5,12.2,12.2C211.6,38.2,206.2,43.7,199.4,43.7"/>
</svg>
