<?xml version="1.0" encoding="utf-8"?>
<!-- Generator: Adobe Illustrator 27.7.0, SVG Export Plug-In . SVG Version: 6.00 Build 0)  -->
<svg version="1.1"
	 id="svg8" xmlns:svg="http://www.w3.org/2000/svg" xmlns:dc="http://purl.org/dc/elements/1.1/" xmlns:rdf="http://www.w3.org/1999/02/22-rdf-syntax-ns#" xmlns:cc="http://creativecommons.org/ns#"
	 xmlns="http://www.w3.org/2000/svg" xmlns:xlink="http://www.w3.org/1999/xlink" x="0px" y="0px" viewBox="0 0 103.5 40.5"
	 style="enable-background:new 0 0 103.5 40.5;" xml:space="preserve">
<path id="path2195" d="M101.4,32.8c-0.1,0-0.2,0-0.3,0H101v0.5h0.2c0.1,0,0.2,0,0.3-0.1c0.1,0,0.1-0.1,0.1-0.2
	C101.6,32.9,101.5,32.8,101.4,32.8 M100.5,34.3v-1.9c0.1,0,0.3,0,0.5,0c0.2,0,0.4,0,0.4,0c0.2,0,0.3,0,0.4,0.1
	c0.2,0.1,0.3,0.2,0.3,0.4c0,0.2,0,0.3-0.1,0.3c-0.1,0.1-0.2,0.1-0.3,0.1c0.1,0,0.2,0.1,0.3,0.1c0.1,0.1,0.2,0.2,0.2,0.4v0.2
	c0,0,0,0,0,0.1c0,0,0,0,0,0.1l0,0.1h-0.5c0-0.1,0-0.1,0-0.3c0-0.1,0-0.2,0-0.2c0-0.1-0.1-0.1-0.1-0.1c0,0-0.1,0-0.2,0l-0.1,0H101
	v0.7L100.5,34.3z M100.3,32.4c-0.3,0.3-0.4,0.6-0.4,1c0,0.4,0.1,0.7,0.4,1c0.3,0.3,0.6,0.4,1,0.4c0.4,0,0.7-0.1,1-0.4
	c0.3-0.3,0.4-0.6,0.4-1c0-0.4-0.1-0.7-0.4-1c-0.3-0.3-0.6-0.4-1-0.4C100.9,31.9,100.6,32.1,100.3,32.4 M102.5,34.6
	c-0.3,0.3-0.7,0.5-1.2,0.5c-0.5,0-0.9-0.2-1.2-0.5c-0.3-0.3-0.5-0.7-0.5-1.2c0-0.5,0.2-0.9,0.5-1.2c0.3-0.3,0.7-0.5,1.2-0.5
	c0.5,0,0.9,0.2,1.2,0.5c0.3,0.3,0.5,0.7,0.5,1.2C103,33.8,102.8,34.2,102.5,34.6"/>
<path id="path2129" d="M57.6,13.9c-2.6-1-4.4-3.5-4.4-6.4c0-3.8,3.1-6.9,6.9-6.9l12.4,0c1.5,0,2.8,1.2,2.8,2.8
	c0,1.6-1.2,2.8-2.8,2.8H60.2c-0.8,0-1.4,0.6-1.4,1.4c0,0.6,0.3,1,0.8,1.3l10.9,5c2.8,1.1,4.8,3.8,4.8,7c0,4.1-3.4,7.5-7.5,7.5
	l-11.8,0c-1.5,0-2.8-1.2-2.8-2.8c0-1.5,1.2-2.8,2.8-2.8l11.8,0c1.1,0,2-0.9,2-2c0-0.9-0.6-1.6-1.3-1.9L57.6,13.9z M81.2,13.9
	c-2.6-1-4.4-3.5-4.4-6.4c0-3.8,3.1-6.9,6.9-6.9l12.4,0c1.5,0,2.8,1.2,2.8,2.8c0,1.6-1.2,2.8-2.8,2.8H83.8c-0.8,0-1.4,0.6-1.4,1.4
	c0,0.6,0.3,1,0.8,1.3l10.9,5c2.8,1.1,4.8,3.8,4.8,7c0,4.1-3.4,7.5-7.5,7.5l-11.8,0c-1.5,0-2.8-1.2-2.8-2.8c0-1.5,1.2-2.8,2.8-2.8
	l11.8,0c1.1,0,2-0.9,2-2c0-0.9-0.6-1.6-1.3-1.9L81.2,13.9z M16.6,8.4c0.2-0.2,0.4-0.6,0.4-1c0-0.8-0.6-1.4-1.4-1.4H3.3
	C1.7,6,0.5,4.8,0.5,3.3c0-1.5,1.2-2.7,2.7-2.7l12.4,0c3.8,0,6.9,3.1,6.9,6.9c0,2-0.9,3.9-2.3,5.1l-6.6,6.6c-0.4,0.4-0.6,0.8-0.6,1.4
	c0,1.1,0.9,2,2,2l4.8,0c1.5,0,2.8,1.2,2.8,2.8c0,1.5-1.2,2.8-2.8,2.8h-4.8c-4.1,0-7.5-3.4-7.5-7.6c0-2.2,1-4.1,2.2-5.3L16.6,8.4z
	 M6,25.3c0,1.5-1.2,2.8-2.8,2.8c-1.5,0-2.8-1.2-2.8-2.8V11.5c0-1.5,1.2-2.8,2.8-2.8C4.8,8.8,6,10,6,11.5V25.3z M26.9,6
	c2.5-3.3,6.6-5.5,11-5.5c7.6,0,13.8,6.2,13.8,13.8c0,7.6-6.2,13.8-13.8,13.8c-7.6,0-13.8-6.2-13.8-13.8c0-1.3,0.1-2.1,0.4-3.5
	c0.3-1.3,1.5-2.1,2.7-2.1c1.5,0,3.1,1.4,2.6,3.4c-0.2,0.7-0.3,1.4-0.3,2.1c0,4.6,3.7,8.3,8.3,8.3c4.6,0,8.3-3.7,8.3-8.3
	c0-4.6-3.7-8.3-8.3-8.3H26.9z"/>
<path id="path2191" d="M50.1,33.4c0.7-1,1.9-1.6,3.3-1.6c2.3,0,4.1,1.8,4.1,4.1c0,2.3-1.8,4.1-4.1,4.1c-2.3,0-4.1-1.8-4.1-4.1
	c0-0.4,0-0.6,0.1-1c0.1-0.4,0.5-0.6,0.8-0.6c0.5,0,0.9,0.4,0.8,1c-0.1,0.2-0.1,0.4-0.1,0.6c0,1.4,1.1,2.5,2.5,2.5
	c1.4,0,2.5-1.1,2.5-2.5c0-1.4-1.1-2.5-2.5-2.5H50.1z M93.7,35.8c-0.8-0.3-1.3-1-1.3-1.9c0-1.1,0.9-2.1,2.1-2.1h3.7
	c0.4,0,0.8,0.4,0.8,0.8c0,0.5-0.4,0.8-0.8,0.8h-3.7c-0.2,0-0.4,0.2-0.4,0.4c0,0.2,0.1,0.3,0.2,0.4l3.2,1.5c0.8,0.3,1.4,1.1,1.4,2.1
	c0,1.2-1,2.2-2.2,2.2h-3.5c-0.5,0-0.8-0.4-0.8-0.8c0-0.5,0.4-0.8,0.8-0.8l3.5,0c0.3,0,0.6-0.3,0.6-0.6c0-0.3-0.2-0.5-0.4-0.6
	L93.7,35.8z M86.2,35.8c-0.8-0.3-1.3-1-1.3-1.9c0-1.1,0.9-2.1,2.1-2.1h3.7c0.5,0,0.8,0.4,0.8,0.8c0,0.5-0.4,0.8-0.8,0.8H87
	c-0.2,0-0.4,0.2-0.4,0.4c0,0.2,0.1,0.3,0.2,0.4l3.2,1.5c0.8,0.3,1.4,1.1,1.4,2.1c0,1.2-1,2.2-2.2,2.2h-3.5c-0.5,0-0.8-0.4-0.8-0.8
	c0-0.5,0.4-0.8,0.8-0.8l3.5,0c0.3,0,0.6-0.3,0.6-0.6c0-0.3-0.2-0.5-0.4-0.6L86.2,35.8z M31.5,35.8c-0.8-0.3-1.3-1-1.3-1.9
	c0-1.1,0.9-2.1,2.1-2.1h3.7c0.5,0,0.8,0.4,0.8,0.8c0,0.5-0.4,0.8-0.8,0.8h-3.7c-0.2,0-0.4,0.2-0.4,0.4c0,0.2,0.1,0.3,0.2,0.4
	l3.2,1.5c0.8,0.3,1.4,1.1,1.4,2.1c0,1.2-1,2.2-2.2,2.2H31c-0.5,0-0.8-0.4-0.8-0.8c0-0.5,0.4-0.8,0.8-0.8l3.5,0
	c0.3,0,0.6-0.3,0.6-0.6c0-0.3-0.2-0.5-0.4-0.6L31.5,35.8z M24,35.8c-0.8-0.3-1.3-1-1.3-1.9c0-1.1,0.9-2.1,2.1-2.1h3.7
	c0.4,0,0.8,0.4,0.8,0.8c0,0.5-0.4,0.8-0.8,0.8h-3.7c-0.2,0-0.4,0.2-0.4,0.4c0,0.2,0.1,0.3,0.2,0.4l3.2,1.5c0.8,0.3,1.4,1.1,1.4,2.1
	c0,1.2-1,2.2-2.2,2.2h-3.5c-0.5,0-0.8-0.4-0.8-0.8c0-0.5,0.4-0.8,0.8-0.8l3.5,0c0.3,0,0.6-0.3,0.6-0.6c0-0.3-0.2-0.5-0.4-0.6
	L24,35.8z M63.2,34.1c0.1-0.1,0.1-0.2,0.1-0.3c0-0.2-0.2-0.4-0.4-0.4h-3.7c-0.5,0-0.8-0.4-0.8-0.8c0-0.5,0.4-0.8,0.8-0.8h3.7
	c1.1,0,2.1,0.9,2.1,2.1c0,0.6-0.3,1.2-0.7,1.5l-2,2c-0.1,0.1-0.2,0.2-0.2,0.4c0,0.3,0.3,0.6,0.6,0.6h1.4c0.4,0,0.8,0.4,0.8,0.8
	c0,0.5-0.4,0.8-0.8,0.8l-1.4,0c-1.2,0-2.2-1-2.2-2.2c0-0.6,0.3-1.2,0.7-1.6L63.2,34.1z M60,39.2c0,0.5-0.4,0.8-0.8,0.8
	c-0.5,0-0.8-0.4-0.8-0.8v-4.1c0-0.5,0.4-0.8,0.8-0.8c0.5,0,0.8,0.4,0.8,0.8L60,39.2z M13,34.1c0.1-0.1,0.1-0.2,0.1-0.3
	c0-0.2-0.2-0.4-0.4-0.4H9c-0.5,0-0.8-0.4-0.8-0.8c0-0.5,0.4-0.8,0.8-0.8h3.7c1.1,0,2.1,0.9,2.1,2.1c0,0.6-0.3,1.2-0.7,1.5l-2,2
	C12,37.4,12,37.6,12,37.8c0,0.3,0.3,0.6,0.6,0.6H14c0.5,0,0.8,0.4,0.8,0.8c0,0.5-0.4,0.8-0.8,0.8l-1.4,0c-1.2,0-2.2-1-2.2-2.2
	c0-0.6,0.3-1.2,0.7-1.6L13,34.1z M9.9,39.2C9.9,39.6,9.5,40,9,40c-0.5,0-0.8-0.4-0.8-0.8v-4.1c0-0.5,0.4-0.8,0.8-0.8
	c0.5,0,0.8,0.4,0.8,0.8V39.2z M44.1,35.9h3.6c0.5,0,0.8-0.4,0.8-0.8c0-0.4-0.4-0.8-0.8-0.8h-4.5c-0.9,0-0.8,1-0.8,0.8v4.1
	c0,0.5,0.4,0.8,0.8,0.8c0.5,0,0.8-0.4,0.8-0.8V35.9z M72.5,38.4h3.6c0.5,0,0.8,0.4,0.8,0.8c0,0.5-0.4,0.8-0.8,0.8h-4.5
	c-0.5,0-0.8-0.4-0.8-0.8v-6.6c0-0.5,0.4-0.8,0.8-0.8c0.4,0,0.8,0.4,0.8,0.8L72.5,38.4z M47.7,33.4c0.5,0,0.8-0.4,0.8-0.8
	c0-0.5-0.4-0.8-0.8-0.8h-4.5c-0.4,0-0.8,0.4-0.8,0.8c0,0.5,0.4,0.8,0.8,0.8H47.7z M83.2,33.4c0.5,0,0.8-0.4,0.8-0.8
	c0-0.5-0.4-0.8-0.8-0.8h-4.5c-0.5,0-0.8,0.4-0.8,0.8c0,0.5,0.4,0.8,0.8,0.8H83.2z M79.6,38.3h3.6c0.4,0,0.8,0.4,0.8,0.8
	c0,0.5-0.4,0.8-0.8,0.8h-4.5c-0.5,0-0.8-0.4-0.8-0.8v-4.1c0-0.5,0.4-0.8,0.8-0.8h4.5c0.4,0,0.8,0.4,0.8,0.8c0,0.4-0.4,0.8-0.8,0.8
	h-3.6V38.3z M21,33.4c0.5,0,0.8-0.4,0.8-0.8c0-0.5-0.4-0.8-0.8-0.8h-4.5c-0.4,0-0.8,0.4-0.8,0.8c0,0.5,0.4,0.8,0.8,0.8H21z
	 M17.3,38.3H21c0.5,0,0.8,0.4,0.8,0.8c0,0.5-0.4,0.8-0.8,0.8h-4.5c-0.5,0-0.8-0.4-0.8-0.8v-4.1c0-0.5,0.4-0.8,0.8-0.8H21
	c0.5,0,0.8,0.4,0.8,0.8c0,0.4-0.4,0.8-0.8,0.8h-3.6V38.3z M2.2,38.3h1c1.3,0,2.5-1.1,2.5-2.5s-1.1-2.5-2.5-2.5H1.4
	c-0.5,0-0.8-0.4-0.8-0.8c0-0.5,0.4-0.8,0.8-0.8l1.9,0c2.3,0,4.1,1.8,4.1,4.1c0,2.3-1.8,4.1-4.1,4.1H1.4c-0.5,0-0.8-0.4-0.8-0.8v-4.1
	c0-0.5,0.4-0.8,0.8-0.8s0.8,0.4,0.8,0.8L2.2,38.3z"/>
</svg>
