<?xml version="1.0" encoding="utf-8"?>
<!-- Generator: Adobe Illustrator 27.7.0, SVG Export Plug-In . SVG Version: 6.00 Build 0)  -->
<svg version="1.1"
	 id="svg8" xmlns:svg="http://www.w3.org/2000/svg" xmlns:dc="http://purl.org/dc/elements/1.1/" xmlns:inkscape="http://www.inkscape.org/namespaces/inkscape" xmlns:rdf="http://www.w3.org/1999/02/22-rdf-syntax-ns#" xmlns:cc="http://creativecommons.org/ns#" xmlns:sodipodi="http://sodipodi.sourceforge.net/DTD/sodipodi-0.dtd"
	 xmlns="http://www.w3.org/2000/svg" xmlns:xlink="http://www.w3.org/1999/xlink" x="0px" y="0px" viewBox="0 0 505.5 110.2"
	 style="enable-background:new 0 0 505.5 110.2;" xml:space="preserve">
<style type="text/css">
	.st0{stroke:#FFFFFF;stroke-miterlimit:10;}
</style>
<sodipodi:namedview  bordercolor="#666666" borderopacity="1.0" fit-margin-bottom="0" fit-margin-left="0" fit-margin-right="0" fit-margin-top="0" id="base" inkscape:current-layer="Layer_2" inkscape:cx="401.49632" inkscape:cy="147.54206" inkscape:document-units="mm" inkscape:object-paths="true" inkscape:pagecheckerboard="true" inkscape:pageopacity="0.0" inkscape:pageshadow="2" inkscape:window-height="1017" inkscape:window-maximized="1" inkscape:window-width="1920" inkscape:window-x="1912" inkscape:window-y="70" inkscape:zoom="1.4142136" pagecolor="#ffffff" showgrid="false">
	</sodipodi:namedview>
<g id="Layer_2_00000075153426522650320850000010614878594561200532_" transform="matrix(0.26458333,0,0,0.26458333,63.601433,180.75927)">
	<g id="g4952" transform="matrix(0.51872027,0,0,0.51522288,-577.48498,267.63158)">
		<path id="path4902" inkscape:connector-curvature="0" d="M1942.6-1649h-162.1c-14.7,0-26.6,11.9-26.6,26.6v36.3
			c0.3,9.6,8.2,17.3,17.9,17.3h26.6c0.9,0,1.4,0.3,2,1.1c0.6,0.9,0.9,2,0.6,2.8l-63.5,190.2c-0.6,1.1-1.7,2-3.1,1.7
			c-1.1,0-2.3-0.9-2.6-1.7l-95-257.7v-0.3c-2.6-6.2-8.5-10.8-15.3-11.1h-57.3c-6.8,0.6-12.8,4.8-15.6,11.1v0.3l-95,257.7
			c-0.3,1.1-1.4,2-2.6,2c-1.4,0-2.6-0.6-3.1-1.7l-63.5-190.5c-0.3-0.9,0-2,0.6-2.8c0.6-0.6,1.1-1.1,2-1.1h26.6
			c9.6,0,17.6-7.7,17.9-17.3v-36.2c0-14.7-11.9-26.6-26.6-26.6h-162.2c-5.7,0-11.1,2.8-14.5,7.4c-3.1,4.3-4.3,9.9-2.6,15
			c2.3,6.5,5.1,14.5,7.7,22.7c2.6,8.2,5.4,15.9,7.9,23c2.3,7.1,8.8,11.9,16.4,12.2h27.2c1.4,0,2.8,0.9,3.1,2.3l126.1,370.5
			c2.3,7.1,8.8,12.2,16.4,12.2h39.1c7.4,0,13.9-4.5,16.4-11.3c34.6-100.3,100.9-291.4,103.5-297.9c0.3-1.4,1.7-2.6,3.1-2.6
			s2.8,0.9,3.1,2.3c2.6,6.8,68.9,197.9,103.5,297.9c2.6,6.8,9.1,11.3,16.4,11.6h39.1c7.7,0,14.2-5.1,16.4-12.2l125.9-370.5
			c1.1-2.3,2.6-2.3,3.1-2.3h27.2c7.4,0,13.9-4.8,16.4-11.9c2.6-7.1,5.1-15.3,7.9-23c2.8-7.7,5.7-16.2,7.9-22.7
			c1.7-5.1,0.6-10.8-2.6-15C1953.6-1646.1,1948.5-1649,1942.6-1649L1942.6-1649z M3840.7-1258.6h-29.5c-4.5,0-8.2-3.7-8.2-8.5
			v-365.1c0-6.5-5.4-11.9-12.2-11.6h-86.2c-3.7,0-7.1,1.7-9.4,4.5l-35.7,44.5c-4.3,5.1-3.1,12.8,2,17c2,1.7,4.5,2.6,6.8,2.6h11.1
			c4.5,0.3,8.2,4,8.5,8.5v299.1c0,2.3-0.9,4.8-2.3,6.8c-9.4,12.2-30,38-40.3,50.7c-4.5,5.1-4,12.8,1.1,17c2.3,2,4.8,2.8,7.7,3.1
			h150.2c3.1,0.3,6.2-0.9,8.5-3.4l35.1-43.9C3856.3-1247,3850.6-1258.6,3840.7-1258.6L3840.7-1258.6z"/>
		<ellipse id="circle4904" cx="3744.9" cy="-1733.3" rx="33.7" ry="33.3"/>
		<path id="path4906" inkscape:connector-curvature="0" d="M4313.5-1606.2c0-6.2-3.4-12.2-11.6-12.2h-15v39.4h5.7v-14.5h5.1
			l9.9,14.5h6.5l-10.5-15C4310.9-1594.5,4313.5-1600.5,4313.5-1606.2L4313.5-1606.2z M4292.5-1599.1v-14.5h9.9
			c3.7,0.3,6.2,3.1,6.2,6.8v0.6c0.3,3.7-2.3,6.8-5.7,7.1C4302.9-1599.1,4292.5-1599.1,4292.5-1599.1z"/>
		<path id="path4908" inkscape:connector-curvature="0" d="M4299-1632.8c-18.7,0-34,15.3-34,34c0,18.7,15.3,34,34,34
			c18.7,0,34-15.3,34-34S4318-1632.8,4299-1632.8z M4299-1569.9c-15.9,0-28.9-12.8-28.9-28.6v-0.3c-0.3-15.6,12.2-28.6,27.8-28.9
			h1.1c15.9,0,28.9,13,28.9,28.9S4315.2-1569.9,4299-1569.9L4299-1569.9z M2366.1-1256.9c-24.9,1.1-37.4-10.5-37.4-39.1v-205
			c0-89.6-75.1-146.6-159.9-146.6c-131.5,0-178.9,62.4-184.3,132.1c-0.3,6.8,4.8,12.5,11.3,12.8h65.5c6.2-0.3,11.3-5.1,11.6-11.1
			c3.4-36.3,27.8-62.9,68.6-62.9c45.1,0,72.3,23,72.3,74.6v44.5h-23.5c-80.8,0-136.3,10.5-173.8,34c-37.4,23.5-56.1,66.9-56.1,117.6
			c0,37.4,12.8,68,38.6,92.4s55.8,35.1,95.2,35.1c23.5,0,46.8-5.4,68-15.6c21-9.4,40.3-21.8,57.3-36.9c3.4-3.1,8.8-3.1,11.9,0.3
			c0.6,0.6,1.1,1.1,1.4,2c18.4,32.3,38.6,42.8,76.8,42.8c34.6,0,51.3-32.3,66.3-51.9C2381.7-1245.3,2375.4-1257.5,2366.1-1256.9
			L2366.1-1256.9z M2214.4-1289.8h-0.6c0,2.8-4.5,6.8-6.2,8.5c-10.5,8.8-22.1,16.4-34.6,22.4c-11.3,4.8-23.5,7.1-35.7,6.8
			c-17.9,0-35.7-6.8-47.3-19.6c-11.9-13-18.1-30.3-17.9-47.9c0-26.6,9.9-44.5,30-57.8c20.1-13.3,53-19.6,92.4-19.6h19.6
			L2214.4-1289.8z M3598.3-1256.9c-24.9,1.1-37.4-10.5-37.4-39.1v-205c0-89.6-75.1-146.6-159.9-146.6
			c-131.5,0-178.9,62.4-184.3,132.1c-0.3,6.8,4.8,12.5,11.3,12.8h65.5c6.2-0.3,11.3-5.1,11.6-11.1c3.4-36.3,27.8-62.9,68.6-62.9
			c45.1,0,72.3,23,72.3,74.6v44.5h-23.2c-80.8,0-136.6,10.5-173.8,34c-37.4,23.5-56.4,66.9-56.4,117.6c0,37.4,12.8,68,38.6,92.4
			s55.8,35.1,95.2,35.1c23.5,0,46.8-5.4,68-15.6c21-9.4,40.3-21.8,57.3-36.9c3.4-3.1,8.8-3.1,11.9,0.3c0.6,0.6,1.1,1.1,1.4,2
			c18.4,32.3,38.6,42.8,76.8,42.8c34.6,0,51.3-32.3,66.3-51.9C3613.9-1245.3,3607.7-1257.5,3598.3-1256.9L3598.3-1256.9z
			 M3446.9-1289.8h-0.6c0,2.8-4.5,6.8-6.2,8.5c-10.5,8.8-22.1,16.4-34.6,22.4c-11.3,4.8-23.5,7.1-35.7,6.8
			c-17.9,0-35.7-6.8-47.3-19.6c-11.9-13-18.1-30.3-17.9-47.9c0-26.6,9.9-44.5,30-57.8s53-19.6,92.4-19.6h19.6v107.1L3446.9-1289.8
			L3446.9-1289.8z M4209.2-1645.6c-6-3.1-21-4.5-34-4.5c-21,0-37.7,2.8-52.2,9.1l-1.1,0.6c-5.4,2.6-10.8,5.4-15.6,9.1
			c-18.4,11.3-34.6,25.5-48.8,42c0,0-6.2,4.8-7.4-3.1v-41.1c0-6.5-5.4-11.9-11.9-11.9H3952c-3.4,0-6.8,1.4-8.8,4.3
			c0,0-27.2,33.7-36,45.4c-5.4,6.8-2,19.6,9.4,19.6h10.8c4.5,0,8.5,4,8.5,8.5v300.5c0,2.3-0.6,4.8-2,6.8c-8.5,10.5-30,37.7-40.5,51
			c-4,5.4-3.1,12.8,2.3,17c2,1.7,4.5,2.6,7.1,2.6H4089c6.5,0,11.9-5.4,11.9-11.9v-45.1c0-6.5-5.4-11.9-11.9-11.9h-29.5
			c-4.8,0-8.5-3.7-8.5-8.5v-175.2c3.4-83.1,53-108.6,76.8-115.9l3.4-1.1l0.9-0.3c6.5-1.7,13-2.6,19.8-2.6c28.3,0,38.8,4.3,54.4,8.2
			c6.5,1.7,11.9-5.4,11.9-11.9v-68C4217.7-1639.3,4213.4-1643.6,4209.2-1645.6L4209.2-1645.6z M3196.4-1644.1h-134.9
			c-4.5,0-8.5-4-8.5-8.5v-66.7c0-32.3,16.7-64.6,51.3-64.6c39.1,0,45.1,32.9,46.8,57.8c0.3,6.2,5.4,11.3,11.6,11.6h55.8
			c6.2-0.3,11.3-5.4,11.1-11.9c-1.1-83.3-54.1-119.1-139.2-119.1c-51.9,0-85.9,16.2-111.4,47.3c-25.5,31.2-38.6,66-38.6,128.4v16.7
			c0,4.5-3.7,8.2-8.2,8.2l-230.5,0.6c-6.5-0.3-12.2,4.8-12.2,11.6v45.4c0,6.8,5.7,12.2,12.2,12.2h24.7c4.8,0,8.5,4,8.5,8.5
			c0,1.1-0.3,2.3-0.6,3.1c0,0-63.5,147.7-89,206.6c-2,4.3-6.8,6.2-11.1,4.5c-2-0.9-3.4-2.6-4.5-4.5
			c-26.1-59.5-90.1-206.6-90.1-206.6c-1.7-4.3,0.3-9.4,4.5-11.1c0.9-0.3,2-0.6,3.1-0.6h17.3c6.8,0,12.2-5.4,12.2-12.2v-45.1
			c0-6.5-5.4-11.9-12.2-11.6h-208.6c-6.8,0-12.2,5.7-11.9,12.5c0,2,0.6,3.7,1.4,5.4c6.2,11.1,20.1,37.4,24.1,45.1c2,3.7,6,6,9.9,6.2
			h40.3c3.4,0,6.5,2,7.9,5.1c0,0,148.3,332.8,153.6,344.4c5.7,14.7,5.7,31.2-0.3,46.2c-6.8,27.2-52.4,76-77.7,67.2
			c-17.3-6-19.6-37.4-40.3-41.4c-4-0.6-7.7-0.3-11.3,1.4c-3.7,1.4-37.4,44.8-44.8,52.4c-3.7,4.8-3.7,11.3,0,16.2
			c18.4,19,49.3,44.5,94.1,46.2c55,2.3,109.1-5.1,159.3-100.3c0,0,159.6-390,178.6-432c1.7-2.8,4.5-4.5,7.9-4.5h84.2
			c4.5,0,8.5,3.7,8.5,8.2v299.6c0,2.6-0.9,4.8-2.3,6.8c-9.9,12.8-30,38-40.3,50.7c-4.3,5.1-3.4,12.8,1.7,16.7
			c2.3,1.7,4.8,2.8,7.7,2.6h188.2c6.8,0,12.2-5.4,12.2-12.2v-44.5c0-6.8-5.4-12.2-12.2-12.2h-32.3c-4.5,0-8.2-3.7-8.2-8.5v-300
			c0-4.5,3.7-8.2,8.2-8.2h99.5c3.7,0,7.1-1.7,9.4-4.5c8.5-11.1,25.5-33.4,34.6-45.1c4-5.4,3.1-12.8-2.3-17
			C3201.5-1643,3198.9-1644.1,3196.4-1644.1z"/>
		<path id="path4910" inkscape:connector-curvature="0" class="st0" d="M1164.8-1499.9l-32.6-122.4c-1.1-4.3-4.3-7.4-8.5-8.5
			l-122.5-32.6c-4-1.1-8.5,0-11.3,3.1l-82.2,82.2l172.1,172.1l82.2-82.2C1164.8-1491.4,1165.9-1495.9,1164.8-1499.9z"/>
		<path id="path4912" inkscape:connector-curvature="0" class="st0" d="M650.3-1312.5l32.6,122.5c1.1,4.3,4.3,7.4,8.5,8.5
			l122.7,32.6c4,1.1,8.5,0,11.3-3.1l82.2-82.2l-171.7-172.1l-82.2,82.2C650.6-1321,649.4-1316.7,650.3-1312.5z"/>
		<path id="path4914" inkscape:connector-curvature="0" class="st0" d="M813.8-1663.4l-122.4,32.6c-4.3,1.1-7.4,4.3-8.5,8.5
			l-32.6,122.4c-1.1,4,0,8.5,3.1,11.3l82.2,82.3l171.8-171.8l-82.2-82.2C822.3-1663.4,818.1-1664.5,813.8-1663.4z"/>
		<path id="path4916" inkscape:connector-curvature="0" class="st0" d="M1160.5-1325.2l-81.1-81.1l-171.7,171.8l81.1,81.1
			c3.7,3.7,9.1,5.1,14.2,4l119.3-31.7c5.1-1.4,9.1-5.4,10.5-10.5l31.7-119.3C1165.6-1316.2,1164.2-1321.6,1160.5-1325.2z"/>
		<path id="path4918" inkscape:connector-curvature="0" class="st0" d="M907.7-1578.1l-171.8,171.8l171.8,171.8l172-171.8
			L907.7-1578.1z"/>
	</g>
</g>
</svg>
