<?xml version="1.0" encoding="utf-8"?>
<!-- Generator: Adobe Illustrator 27.7.0, SVG Export Plug-In . SVG Version: 6.00 Build 0)  -->
<svg version="1.1"
	 id="svg3727" xmlns:svg="http://www.w3.org/2000/svg" xmlns:dc="http://purl.org/dc/elements/1.1/" xmlns:inkscape="http://www.inkscape.org/namespaces/inkscape" xmlns:rdf="http://www.w3.org/1999/02/22-rdf-syntax-ns#" xmlns:cc="http://creativecommons.org/ns#" xmlns:sodipodi="http://sodipodi.sourceforge.net/DTD/sodipodi-0.dtd"
	 xmlns="http://www.w3.org/2000/svg" xmlns:xlink="http://www.w3.org/1999/xlink" x="0px" y="0px" viewBox="0 0 315.7 73"
	 style="enable-background:new 0 0 315.7 73;" xml:space="preserve">
<sodipodi:namedview  bordercolor="#666666" borderopacity="1.0" fit-margin-bottom="0" fit-margin-left="0" fit-margin-right="0" fit-margin-top="0" id="base" inkscape:current-layer="layer1" inkscape:cx="185.01285" inkscape:cy="190.80167" inkscape:document-units="px" inkscape:pageopacity="0.0" inkscape:pageshadow="2" inkscape:window-height="438" inkscape:window-maximized="0" inkscape:window-width="613" inkscape:window-x="51" inkscape:window-y="24" inkscape:zoom="0.35" pagecolor="#ffffff" showgrid="false">
	</sodipodi:namedview>
<g id="layer1" transform="translate(-164.98714,-650.13197)" inkscape:groupmode="layer" inkscape:label="Ebene 1">
	<g id="g3189" transform="matrix(1.25,0,0,-1.25,125.18602,1619.1156)">
		<g>
			<g id="g3191">
				<g id="g3197" transform="translate(57.9409,740.7402)">
					<path id="path3199" inkscape:connector-curvature="0" d="M0,0c0-6-3.2-12.1-13.1-12.1c-8.3,0-13,4.6-13,13v2.7h5.9V1.7
						c0-5.2,1.4-8.8,7.2-8.8c5.4,0,7.1,3.1,7.1,8v32.5H0L0,0z"/>
				</g>
				<g id="g3201" transform="translate(94.3779,760.7349)">
					<path id="path3203" inkscape:connector-curvature="0" d="M0,0c-1.2,6.3-6.3,9.5-12.5,9.5c-10.6,0-15.1-8.7-15.1-18
						c0-10.2,4.5-18.6,15.1-18.6c7.8,0,12.3,5.5,12.8,12.8h5.9c-1.1-11.1-8-17.8-19.2-17.8c-13.8,0-20.6,10.2-20.6,23.2
						c0,12.9,7.3,23.4,21.1,23.4c9.3,0,16.9-5,18.3-14.5H0z"/>
				</g>
				<g id="g3205" transform="translate(109.1807,752.8242)">
					<path id="path3207" inkscape:connector-curvature="0" d="M0,0h11.6c6.7-0.1,9.7,2.9,9.7,8.2c0,5.3-3,8.2-9.7,8.2H0V0z
						 M-5.9,21.3h19.5c8.8,0,13.6-4.9,13.6-13.1C27.2-0.1,22.4-5,13.6-5H0v-18.2h-5.9C-5.9-23.2-5.9,21.3-5.9,21.3z"/>
				</g>
				<g id="g3209" transform="translate(159.1978,748.8398)">
					<path id="path3211" inkscape:connector-curvature="0" d="M0,0c-0.2,5-4.1,9.1-9.3,9.1c-5.5,0-8.8-4.2-9.2-9.1H0z M5.1-9
						c-1.4-7.1-6.5-11-13.8-11c-10.3,0-15.1,7.1-15.4,16.9c0,9.7,6.4,16.8,15.1,16.8C2.4,13.8,5.9,3.1,5.6-4.7h-24.1
						c-0.2-5.6,3-10.6,10-10.6c4.4,0,7.4,2.1,8.3,6.3C-0.1-9,5.1-9,5.1-9z"/>
				</g>
				<g id="g3213" transform="translate(167.1875,761.8574)">
					<path id="path3215" inkscape:connector-curvature="0" d="M0,0h5v-5.1h0.1c2.2,4,5.9,5.9,10.5,5.9C24,0.7,26.7-4.1,26.7-11
						v-21.2h-5.3v21.8c0,3.9-2.5,6.5-6.5,6.5C8.4-3.9,5.3-8.2,5.3-14v-18.2H0L0,0z"/>
				</g>
				<g id="g3217" transform="translate(197.3398,761.8574)">
					<path id="path3219" inkscape:connector-curvature="0" d="M0,0h5v-5.1h0.1c2.2,4,5.9,5.9,10.5,5.9C24,0.7,26.7-4.1,26.7-11
						v-21.2h-5.3v21.8c0,3.9-2.5,6.5-6.5,6.5C8.4-3.9,5.3-8.2,5.3-14v-18.2H0L0,0z"/>
				</g>
				<g id="g3221" transform="translate(250.5332,748.8398)">
					<path id="path3223" inkscape:connector-curvature="0" d="M0,0c-0.2,5-4.1,9.1-9.3,9.1c-5.5,0-8.8-4.2-9.2-9.1H0z M5.1-9
						c-1.4-7.1-6.5-11-13.8-11c-10.3,0-15.1,7.1-15.4,16.9c0,9.7,6.4,16.8,15.1,16.8C2.4,13.8,5.9,3.1,5.6-4.7h-24.1
						c-0.2-5.6,3-10.6,10-10.6c4.4,0,7.4,2.1,8.3,6.3C-0.1-9,5.1-9,5.1-9z"/>
				</g>
				<g id="g3225" transform="translate(270.4189,725.3574)">
					<path id="path3227" inkscape:connector-curvature="0" d="M0,0c-2.4-6.3-4.6-8.6-9.3-8.6c-1.2,0-2.5,0.1-3.7,0.6v4.9
						c1-0.3,2.1-0.7,3.1-0.7c2.2,0,3.4,1.1,4.4,2.9l2.2,5.5l-12.8,32h6l9.4-26.3h0.1l9,26.3H14L0,0z"/>
				</g>
			</g>
		</g>
	</g>
</g>
</svg>
