<?xml version="1.0" encoding="utf-8"?>
<!-- Generator: Adobe Illustrator 27.7.0, SVG Export Plug-In . SVG Version: 6.00 Build 0)  -->
<svg version="1.1" id="Layer_1" xmlns="http://www.w3.org/2000/svg" xmlns:xlink="http://www.w3.org/1999/xlink" x="0px" y="0px"
	 viewBox="0 0 1562 1238" style="enable-background:new 0 0 1562 1238;" xml:space="preserve">
<style type="text/css">
	.st0{clip-path:url(#SVGID_00000069379992078613247920000011393941627424327591_);}
	.st1{stroke:#FFFFFF;stroke-miterlimit:10;}
</style>
<g>
	<defs>
		<rect id="SVGID_1_" x="-2789.3" y="-2164.5" width="7117.3" height="9207.9"/>
	</defs>
	<clipPath id="SVGID_00000137103579157232202280000003970240057167628208_">
		<use xlink:href="#SVGID_1_"  style="overflow:visible;"/>
	</clipPath>
	<g id="Clip-Path:_Page_1" style="clip-path:url(#SVGID_00000137103579157232202280000003970240057167628208_);">
		<g id="Page_1">
			<path id="Path_4" class="st1" d="M1248.5,211.3c-3.9,3.1-7.5,6.1-11,8.8c-115.2,86.6-191.9,162.1-191.9,162.1l-87.2-89.5
				l54,284.9v2.9c0,0,82.6-127.9,207.6-265.7c32.6-36,66.3-71.5,97.7-102.9c76.2-77.3,137.8-134.3,137.8-134.3
				S1348.5,138.1,1248.5,211.3L1248.5,211.3z M766.5,1237.9c69.2-62.8,125.6-173.2,125.6-290V310.7H710.6l1.8,597.6
				c0,98.3-35.5,176.2-105.3,218.6l86.7,111"/>
			<path id="Path_5" class="st1" d="M379.8,1122.8H98.3V310.2h290.8c112.8,0,211.1,50,211.1,199.4c0,73.2-32.6,150.5-111.1,179.6
				c69.2,20.9,135.5,84.8,135.5,183.1C624.6,1019.9,541.4,1122.8,379.8,1122.8z M343.1,470h-62.8v154.1l65.2-0.6
				c49.4,0.6,68-34.9,68-76.7C413.5,504.9,391.4,470,343.1,470L343.1,470z M340.8,778.7h-60.5v180.8h62.8
				c51.8,0,73.9-39.5,73.9-89.5C417,828.7,403,778.7,340.8,778.7z M1186.3,1136.8c-68,0-137.8-20.9-207-62.2l58.1-132
				c39,25.6,103.5,61.1,151.2,61.1c29.1,0,49.4-14.6,49.4-33.8c0-87.7-233.1-24.9-233.1-198.8c0-105.8,76.7-182.5,197.1-182.5
				c83.1,0,132,22.7,186.6,51.7l-52.9,125c-38.9-19.7-70.9-41.2-109.9-43c-29-1.2-55.2,8.7-55.2,32.6
				c0.6,81.3,237.8,15.1,237.8,198.2C1408.4,1064.7,1318.3,1136.8,1186.3,1136.8z"/>
			<path id="Path_6" class="st1" d="M1331.7,463c23.2,0,41.2,18.6,41.2,42.5c0,23.8-18,42.4-41.8,42.4c-23.3,0-41.9-18.6-41.9-42.4
				c0-23.9,18.6-42.5,41.9-42.5L1331.7,463z M1366,505.5c0-19.9-15.2-36.1-34-36.1s-34,16.2-34,36.1c0,19.9,15.2,36,34,36
				S1366,525.4,1366,505.5z M1324.1,530.5h-7.5v-47.7c4-0.6,7.5-1.2,13.3-1.2c7,0,11.7,1.8,14.6,3.5c2.7,2.3,4.2,5.6,4.6,9.9
				c0,6.4-4.6,9.9-9.3,11.6v0.6c4.1,0.6,7,4.1,7.6,11.1c1.1,7.5,2.3,10.4,2.9,12.2h-7.6c-1.1-1.8-2.3-6.4-3.5-12.2
				c-1.1-6.4-4-8.7-9.8-8.7h-5.3L1324.1,530.5z M1324.1,504.3h5.3c6.4,0,11.6-1.8,11.6-8.1c0-4.1-2.9-8.2-11.6-8.2
				c-2.3,0-4.1,0.2-5.3,0.6V504.3z"/>
		</g>
	</g>
</g>
</svg>
