<svg width="123" height="42" viewBox="0 0 123 42" fill="none" xmlns="http://www.w3.org/2000/svg">
<path d="M6.128 41.36L5.312 41.264H5.168C5.04 41.328 4.752 41.328 4.304 41.264C3.824 41.2 3.504 41.152 3.344 41.12L3.056 41.024H3.008C2.944 41.024 2.88 41.008 2.816 40.976C2.752 40.976 2.688 40.96 2.624 40.928C2.4 40.864 2.192 40.784 2 40.688C1.808 40.592 1.632 40.496 1.472 40.4L0.991999 40.112C0.959999 39.984 0.863999 39.808 0.704 39.584C0.511999 39.392 0.431999 39.232 0.464 39.104L0.655999 39.008L0.704 39.2C0.799999 39.328 0.895999 39.456 0.991999 39.584C1.056 39.744 1.152 39.872 1.28 39.968C1.568 40.192 1.936 40.304 2.384 40.304C2.832 40.304 3.264 40.32 3.68 40.352C3.936 40.416 4.16 40.448 4.352 40.448L5.12 40.304L5.216 40.352C5.312 40.288 5.488 40.256 5.744 40.256C6 40.288 6.144 40.272 6.176 40.208C6.24 40.272 6.272 40.304 6.272 40.304C6.624 40.176 7.008 40.08 7.424 40.016C7.84 39.952 8.24 39.872 8.624 39.776C8.816 39.744 9.008 39.68 9.2 39.584C9.392 39.52 9.6 39.488 9.824 39.488C10.08 39.328 10.416 39.216 10.832 39.152C11.216 39.12 11.552 39.04 11.84 38.912C12.96 38.464 14 38.096 14.96 37.808C15.92 37.552 16.944 37.136 18.032 36.56C18.256 36.464 18.608 36.256 19.088 35.936C19.568 35.616 20.032 35.28 20.48 34.928C20.96 34.608 21.312 34.4 21.536 34.304C22.272 33.792 22.832 33.424 23.216 33.2C23.6 32.976 23.936 32.768 24.224 32.576C24.512 32.384 24.896 32.112 25.376 31.76C25.856 31.376 26.56 30.784 27.488 29.984L32.816 25.376C33.328 24.928 33.712 24.544 33.968 24.224C34.256 23.904 34.528 23.6 34.784 23.312C35.04 22.992 35.392 22.64 35.84 22.256H35.744C35.712 22.256 35.696 22.24 35.696 22.208C35.696 22.176 35.68 22.16 35.648 22.16C35.616 22.16 35.536 22.224 35.408 22.352C35.28 22.48 35.184 22.544 35.12 22.544C35.088 22.544 34.928 22.544 34.64 22.544C34.384 22.512 34.24 22.512 34.208 22.544L33.872 22.4C33.872 22.08 33.92 21.76 34.016 21.44L34.832 20.096C34.896 20.128 34.928 20.16 34.928 20.192C34.928 20.224 34.944 20.24 34.976 20.24C35.04 20.24 35.2 20.224 35.456 20.192C35.744 20.128 36.032 20.08 36.32 20.048C36.608 20.016 36.768 20 36.8 20C36.864 20 37.024 20.016 37.28 20.048C37.536 20.048 37.712 20.048 37.808 20.048H37.856C38.08 19.888 38.288 19.744 38.48 19.616C38.672 19.488 38.88 19.36 39.104 19.232C39.2 19.168 39.296 19.072 39.392 18.944C39.52 18.816 39.6 18.736 39.632 18.704C39.952 18.416 40.16 18.176 40.256 17.984C40.352 17.76 40.56 17.488 40.88 17.168C41.52 16.624 42.032 16.096 42.416 15.584C42.832 15.04 43.376 14.512 44.048 14C44.176 13.904 44.448 13.648 44.864 13.232C45.28 12.816 45.696 12.4 46.112 11.984C46.528 11.568 46.768 11.36 46.832 11.36C46.896 11.264 47.152 10.992 47.6 10.544C48.08 10.064 48.608 9.552 49.184 9.008C49.792 8.432 50.32 7.92 50.768 7.472C51.248 6.992 51.536 6.704 51.632 6.608C51.92 6.256 52.192 5.92 52.448 5.6C52.736 5.28 53.024 4.944 53.312 4.592L54.704 2.96H50.192C49.488 2.96 48.784 2.96 48.08 2.96C47.376 2.96 46.752 2.976 46.208 3.008C45.952 3.2 45.488 3.344 44.816 3.44C44.144 3.504 43.504 3.584 42.896 3.68C42.32 3.744 41.968 3.856 41.84 4.016C39.984 4.336 38.096 4.96 36.176 5.888C34.256 6.816 32.416 7.952 30.656 9.296C28.896 10.64 27.312 12.112 25.904 13.712C24.528 15.312 23.424 16.96 22.592 18.656C21.792 20.32 21.392 21.936 21.392 23.504C21.392 23.76 21.36 23.776 21.296 23.552C21.232 23.296 21.152 22.96 21.056 22.544C20.992 22.096 20.912 21.68 20.816 21.296C20.72 20.912 20.64 20.72 20.576 20.72L20 20.384C19.872 20.256 19.808 20.08 19.808 19.856C19.808 19.632 19.856 19.392 19.952 19.136C20.048 18.88 20.144 18.64 20.24 18.416C20.784 17.232 21.536 16.048 22.496 14.864C23.488 13.648 24.576 12.496 25.76 11.408C26.976 10.288 28.16 9.312 29.312 8.48C29.856 8.128 30.4 7.808 30.944 7.52C31.488 7.232 32.016 6.928 32.528 6.608C32.592 6.576 32.8 6.48 33.152 6.32C33.504 6.128 33.84 5.952 34.16 5.792C34.512 5.6 34.704 5.488 34.736 5.456C35.056 5.36 35.504 5.2 36.08 4.976C36.656 4.72 37.28 4.464 37.952 4.208C38.656 3.952 39.296 3.728 39.872 3.536C40.448 3.344 40.896 3.248 41.216 3.248H41.264C41.488 3.056 42.016 2.864 42.848 2.672C43.712 2.48 44.656 2.304 45.68 2.144C46.736 1.984 47.696 1.872 48.56 1.808C49.456 1.712 50.032 1.68 50.288 1.712L50.336 1.664C50.464 1.6 50.64 1.568 50.864 1.568C51.12 1.568 51.296 1.584 51.392 1.616C51.552 1.584 51.68 1.568 51.776 1.568C51.872 1.536 51.984 1.52 52.112 1.52C52.272 1.52 52.416 1.536 52.544 1.568C52.704 1.568 52.848 1.584 52.976 1.616C53.04 1.584 53.136 1.568 53.264 1.568C53.456 1.568 53.632 1.6 53.792 1.664C53.984 1.696 54.144 1.728 54.272 1.76C54.432 1.664 54.56 1.616 54.656 1.616C54.816 1.616 55.024 1.68 55.28 1.808C55.344 1.744 55.456 1.712 55.616 1.712H55.904C56.064 1.552 56.208 1.424 56.336 1.328C56.496 1.232 56.64 1.168 56.768 1.136C57.312 0.976 57.728 0.896 58.016 0.896C58.592 0.896 58.784 1.168 58.592 1.712C59.04 1.712 59.488 1.728 59.936 1.76C60.384 1.76 60.592 1.792 60.56 1.856C60.56 1.856 60.736 1.904 61.088 2C61.472 2.064 61.664 2.272 61.664 2.624C61.664 2.784 61.584 2.976 61.424 3.2C61.296 3.424 61.056 3.696 60.704 4.016C60.576 4.112 60.432 4.16 60.272 4.16C60.08 4.16 59.888 4.112 59.696 4.016C59.568 4.144 59.44 4.288 59.312 4.448C59.216 4.576 59.088 4.656 58.928 4.688C58.896 4.752 58.768 4.912 58.544 5.168C58.352 5.392 58.224 5.52 58.16 5.552C58.128 5.68 57.952 5.92 57.632 6.272C57.344 6.592 57.136 6.832 57.008 6.992C56.688 7.376 56.256 7.904 55.712 8.576C55.2 9.216 54.8 9.76 54.512 10.208C54.448 10.304 54.384 10.416 54.32 10.544C54.256 10.672 54.192 10.784 54.128 10.88C54.064 10.944 53.936 11.168 53.744 11.552C53.552 11.904 53.344 12.304 53.12 12.752C52.896 13.2 52.688 13.616 52.496 14C52.304 14.352 52.192 14.56 52.16 14.624C51.872 15.136 51.536 15.872 51.152 16.832C50.8 17.76 50.432 18.8 50.048 19.952H50.816C51.04 19.952 51.264 19.968 51.488 20C51.744 20 51.952 20.016 52.112 20.048C52.144 20.048 52.16 20.064 52.16 20.096C52.192 20.128 52.224 20.144 52.256 20.144C52.416 20.144 52.592 20.224 52.784 20.384C52.976 20.544 52.992 20.624 52.832 20.624C52.8 20.624 52.784 20.608 52.784 20.576C52.784 20.544 52.752 20.528 52.688 20.528C52.624 20.528 52.512 20.56 52.352 20.624C52.192 20.656 52.032 20.672 51.872 20.672L51.776 20.816C51.744 20.816 51.728 20.8 51.728 20.768C51.728 20.704 51.696 20.672 51.632 20.672C51.6 20.672 51.488 20.688 51.296 20.72C51.136 20.752 50.976 20.784 50.816 20.816L50.672 21.056C50.544 21.056 50.368 21.056 50.144 21.056C49.952 21.024 49.808 21.008 49.712 21.008C49.168 22.704 48.672 24.464 48.224 26.288C47.808 28.112 47.568 29.712 47.504 31.088V31.664C47.504 32.24 47.552 32.608 47.648 32.768C47.776 32.96 47.952 33.056 48.176 33.056C48.912 33.056 49.52 32.832 50 32.384C50.512 31.968 51.072 31.424 51.68 30.752C51.84 30.592 52.016 30.432 52.208 30.272C52.4 30.08 52.56 29.872 52.688 29.648C52.88 29.52 53.04 29.36 53.168 29.168C53.52 28.88 53.904 28.464 54.32 27.92C54.768 27.376 55.088 26.992 55.28 26.768C55.344 26.704 55.52 26.496 55.808 26.144C56.096 25.792 56.272 25.6 56.336 25.568C56.464 25.44 56.624 25.248 56.816 24.992C57.008 24.736 57.2 24.512 57.392 24.32C57.552 24.16 57.728 24.08 57.92 24.08C58.112 24.048 58.096 24.16 57.872 24.416C57.552 24.8 57.136 25.312 56.624 25.952C56.144 26.56 55.68 27.152 55.232 27.728C54.816 28.304 54.512 28.704 54.32 28.928C54.288 28.928 54.16 29.088 53.936 29.408C53.712 29.696 53.488 30 53.264 30.32C53.04 30.64 52.896 30.864 52.832 30.992C52.704 31.216 52.384 31.584 51.872 32.096C51.36 32.608 50.848 33.088 50.336 33.536C49.824 34.016 49.472 34.272 49.28 34.304H49.088C48.832 34.304 48.608 34.208 48.416 34.016C48.224 33.856 48.08 33.776 47.984 33.776C47.92 33.52 47.776 33.328 47.552 33.2C47.328 33.104 47.136 32.992 46.976 32.864C46.912 32.8 46.832 32.72 46.736 32.624C46.672 32.528 46.608 32.432 46.544 32.336C46.384 32.144 46.224 32.032 46.064 32C45.936 32 45.824 31.984 45.728 31.952C45.632 31.888 45.552 31.712 45.488 31.424C45.392 30.912 45.264 30.464 45.104 30.08C44.944 29.696 44.896 29.216 44.96 28.64C44.992 28.512 45.024 28.32 45.056 28.064C45.12 27.808 45.152 27.632 45.152 27.536H45.2C45.2 27.76 45.168 27.968 45.104 28.16C45.072 28.352 45.072 28.576 45.104 28.832H45.152L45.104 28.784C45.168 28.656 45.264 28.352 45.392 27.872C45.52 27.392 45.584 27.088 45.584 26.96C45.552 26.96 45.536 26.944 45.536 26.912L45.488 26.96C45.488 27.12 45.472 27.232 45.44 27.296C45.376 27.168 45.344 27.072 45.344 27.008C45.312 26.784 45.376 26.4 45.536 25.856C45.696 25.28 45.76 24.896 45.728 24.704L45.68 24.368C45.808 24.176 45.92 23.888 46.016 23.504C46.144 23.088 46.24 22.768 46.304 22.544C46.4 22.192 46.496 21.952 46.592 21.824C46.72 21.696 46.752 21.488 46.688 21.2C46.336 21.2 45.984 21.216 45.632 21.248C45.312 21.248 45.072 21.248 44.912 21.248H44.864C44.832 21.248 44.8 21.232 44.768 21.2C44.736 21.168 44.688 21.152 44.624 21.152L44.576 21.2C44.544 21.2 44.48 21.232 44.384 21.296C44.288 21.328 44.208 21.344 44.144 21.344H39.152C38.928 21.568 38.736 21.792 38.576 22.016C38.416 22.208 38.208 22.4 37.952 22.592L36.8 23.552C36.512 23.776 36.224 24.016 35.936 24.272C35.68 24.528 35.408 24.784 35.12 25.04L34.448 25.568L33.68 26.288L33.152 26.624L31.616 28.064C31.456 28.224 31.28 28.384 31.088 28.544C30.896 28.672 30.72 28.816 30.56 28.976C30.336 29.168 29.936 29.488 29.36 29.936C28.816 30.384 28.288 30.784 27.776 31.136C27.072 31.648 26.384 32.16 25.712 32.672C25.072 33.216 24.464 33.664 23.888 34.016C23.088 34.528 22.496 34.896 22.112 35.12C21.76 35.344 21.504 35.488 21.344 35.552C21.184 35.616 21.04 35.664 20.912 35.696C20.816 35.76 20.64 35.856 20.384 35.984C20.128 36.144 19.696 36.416 19.088 36.8C18.512 37.152 17.92 37.488 17.312 37.808C16.704 38.128 16.096 38.432 15.488 38.72C15.36 38.784 15.136 38.896 14.816 39.056C14.496 39.216 14.272 39.296 14.144 39.296L13.232 39.728C13.104 39.76 12.976 39.792 12.848 39.824C12.688 39.856 12.528 39.904 12.368 39.968C12.144 40.032 11.936 40.096 11.744 40.16C11.52 40.224 11.296 40.288 11.072 40.352C10.88 40.384 10.704 40.432 10.544 40.496C10.352 40.592 10.16 40.624 9.968 40.592C9.872 40.656 9.616 40.736 9.2 40.832C8.784 40.928 8.496 40.976 8.336 40.976L6.8 41.312C6.672 41.344 6.56 41.344 6.464 41.312C6.336 41.312 6.224 41.328 6.128 41.36ZM41.072 20H45.488L45.536 19.952C45.568 19.888 45.728 19.856 46.016 19.856C46.176 19.856 46.336 19.856 46.496 19.856C46.688 19.856 46.864 19.872 47.024 19.904C47.44 18.624 47.888 17.424 48.368 16.304C48.432 16.144 48.496 16.016 48.56 15.92C48.624 15.792 48.688 15.664 48.752 15.536C48.912 15.184 49.04 14.848 49.136 14.528C49.264 14.176 49.392 13.84 49.52 13.52C49.808 12.912 50.112 12.288 50.432 11.648C50.752 10.976 51.072 10.384 51.392 9.872L51.728 9.2L51.92 8.96C51.824 9.056 51.712 9.152 51.584 9.248C51.488 9.344 51.392 9.456 51.296 9.584L43.664 17.408C43.536 17.504 43.376 17.6 43.184 17.696C43.024 17.76 42.896 17.872 42.8 18.032L42.56 18.368L41.168 19.904L41.072 20ZM69.383 35.504C68.167 35.504 67.031 35.312 65.975 34.928C64.919 34.544 64.071 33.92 63.431 33.056C62.791 32.224 62.471 31.104 62.471 29.696C62.471 28.544 62.791 27.472 63.431 26.48C64.103 25.488 64.887 24.688 65.783 24.08C65.975 23.92 66.183 23.76 66.407 23.6C66.663 23.44 66.903 23.36 67.127 23.36H67.223C67.127 23.584 66.871 23.856 66.455 24.176C66.071 24.464 65.639 24.848 65.159 25.328C64.679 25.808 64.247 26.4 63.863 27.104C63.511 27.808 63.335 28.64 63.335 29.6C63.335 31.232 63.815 32.448 64.775 33.248C65.767 34.048 67.031 34.448 68.567 34.448C69.207 34.448 69.879 34.368 70.583 34.208C71.319 34.048 71.991 34 72.599 34.064L72.647 34.016C72.711 33.952 72.807 33.904 72.935 33.872C73.095 33.872 73.223 33.856 73.319 33.824C73.575 33.568 73.991 33.312 74.567 33.056C75.175 32.8 75.815 32.56 76.487 32.336C77.191 32.112 77.783 31.904 78.263 31.712C78.775 31.488 79.047 31.312 79.079 31.184L79.511 31.232C79.575 31.104 79.639 30.992 79.703 30.896C79.799 30.768 79.911 30.704 80.039 30.704H80.135C80.295 30.544 80.519 30.368 80.807 30.176C81.095 29.952 81.351 29.872 81.575 29.936C81.703 29.648 81.879 29.456 82.103 29.36C82.327 29.264 82.455 29.056 82.487 28.736H82.727C83.015 28.384 83.383 28.048 83.831 27.728C84.311 27.376 84.711 27.04 85.031 26.72L85.223 26.768L85.271 26.72C85.399 26.592 85.527 26.416 85.655 26.192C85.783 25.968 85.959 25.888 86.183 25.952L86.087 25.568C86.311 25.504 86.599 25.296 86.951 24.944C87.335 24.56 87.607 24.368 87.767 24.368L87.815 23.984L87.863 24.032V23.984H88.103C88.135 23.824 88.183 23.664 88.247 23.504C88.311 23.344 88.455 23.296 88.679 23.36C88.775 23.168 88.903 22.976 89.063 22.784C89.255 22.56 89.415 22.368 89.543 22.208C89.607 21.952 89.639 21.792 89.639 21.728C89.639 21.664 89.639 21.632 89.639 21.632C89.639 21.632 89.639 21.616 89.639 21.584C89.639 21.552 89.655 21.52 89.687 21.488C89.783 21.488 89.943 21.344 90.167 21.056C90.391 20.736 90.599 20.432 90.791 20.144C91.015 19.824 91.159 19.68 91.223 19.712C91.351 19.52 91.511 19.232 91.703 18.848C91.895 18.432 92.071 18.16 92.231 18.032L92.375 17.648C92.439 17.648 92.455 17.664 92.423 17.696C92.423 17.696 92.455 17.696 92.519 17.696C92.551 17.696 92.567 17.68 92.567 17.648C92.567 17.616 92.551 17.6 92.519 17.6C92.647 17.44 92.759 17.28 92.855 17.12C92.951 16.928 93.047 16.752 93.143 16.592C93.143 16.432 93.239 16.208 93.431 15.92C93.655 15.6 93.847 15.456 94.007 15.488C94.007 15.456 93.991 15.424 93.959 15.392C93.927 15.328 93.911 15.28 93.911 15.248C93.911 15.024 94.007 14.944 94.199 15.008L94.247 15.2H94.295L94.343 15.152V14.912L94.199 14.528L94.631 14.48V14.096L95.015 14V13.424C95.175 13.328 95.351 13.088 95.543 12.704C95.767 12.32 95.895 12.048 95.927 11.888L96.167 11.84C96.199 11.776 96.199 11.712 96.167 11.648C96.167 11.552 96.167 11.488 96.167 11.456C96.487 11.232 96.679 10.96 96.743 10.64C96.871 10.576 96.999 10.432 97.127 10.208C97.255 9.984 97.351 9.808 97.415 9.68C97.415 9.52 97.447 9.392 97.511 9.296C97.607 9.168 97.671 9.04 97.703 8.912C97.607 8.88 97.351 8.816 96.935 8.72C96.519 8.624 96.311 8.512 96.311 8.384H96.263C96.199 8.448 96.103 8.48 95.975 8.48C95.655 8.48 95.367 8.368 95.111 8.144C94.855 7.888 94.599 7.728 94.343 7.664V7.712C94.471 7.84 94.519 7.968 94.487 8.096L93.719 7.808L93.767 7.616L93.911 7.664V7.616L93.431 7.424L93.287 7.712L92.903 7.424C92.647 7.36 92.375 7.328 92.087 7.328C91.831 7.296 91.575 7.216 91.319 7.088C91.255 7.152 91.175 7.184 91.079 7.184C90.855 7.184 90.663 7.104 90.503 6.944C90.343 6.752 90.183 6.64 90.023 6.608C89.895 6.8 89.719 6.896 89.495 6.896L89.591 6.512L89.399 6.464L89.303 6.752C89.239 6.688 89.159 6.656 89.063 6.656L88.775 6.464L88.631 6.56H88.247L88.295 6.272H88.247L88.199 6.32C88.007 6.416 87.767 6.464 87.479 6.464C87.287 6.464 87.095 6.448 86.903 6.416C86.711 6.384 86.503 6.352 86.279 6.32L86.231 6.08C86.135 6.112 86.023 6.112 85.895 6.08L85.847 6.032L85.751 6.272C85.495 6.208 85.287 6.176 85.127 6.176C84.967 6.176 84.743 6.176 84.455 6.176C84.071 6.176 83.671 6.128 83.255 6.032C82.871 5.904 82.487 5.84 82.103 5.84C81.943 5.84 81.767 5.824 81.575 5.792C81.415 5.76 81.255 5.728 81.095 5.696C80.967 5.792 80.823 5.84 80.663 5.84C80.535 5.84 80.407 5.84 80.279 5.84C80.183 5.808 80.071 5.776 79.943 5.744L79.895 5.936H79.751C79.655 5.936 79.447 5.952 79.127 5.984C78.807 5.984 78.487 6 78.167 6.032C77.879 6.064 77.719 6.128 77.687 6.224C77.559 6.224 77.415 6.24 77.255 6.272C77.095 6.272 76.935 6.256 76.775 6.224C76.615 6.416 76.215 6.56 75.575 6.656C74.967 6.752 74.375 6.832 73.799 6.896C73.223 6.96 72.919 7.072 72.887 7.232C71.191 7.552 69.511 8.144 67.847 9.008C66.183 9.84 64.679 10.896 63.335 12.176C61.991 13.456 60.903 14.912 60.071 16.544C59.271 18.176 58.871 19.92 58.871 21.776C58.871 22.192 58.935 22.624 59.063 23.072C59.191 23.52 59.255 23.856 59.255 24.08C59.255 24.144 59.223 24.176 59.159 24.176C59.031 24.112 58.935 23.984 58.871 23.792C58.807 23.568 58.679 23.456 58.487 23.456L58.343 23.6C58.055 23.408 57.879 23.12 57.815 22.736C57.751 22.32 57.719 21.952 57.719 21.632C57.719 20.448 57.943 19.264 58.391 18.08C58.839 16.864 59.415 15.712 60.119 14.624C60.823 13.504 61.559 12.528 62.327 11.696C62.679 11.344 63.063 11.024 63.479 10.736C63.895 10.448 64.311 10.144 64.727 9.824C64.791 9.76 64.951 9.648 65.207 9.488C65.463 9.328 65.719 9.168 65.975 9.008C66.263 8.816 66.407 8.704 66.407 8.672C66.759 8.544 67.287 8.304 67.991 7.952C68.695 7.6 69.415 7.264 70.151 6.944C70.887 6.624 71.463 6.464 71.879 6.464H71.975C72.103 6.272 72.535 6.08 73.271 5.888C74.039 5.696 74.903 5.52 75.863 5.36C76.855 5.2 77.767 5.088 78.599 5.024C79.431 4.928 79.991 4.896 80.279 4.928L80.327 4.88C80.423 4.784 80.551 4.736 80.711 4.736C80.839 4.736 80.951 4.752 81.047 4.784C81.175 4.816 81.287 4.848 81.383 4.88C81.575 4.784 81.783 4.736 82.007 4.736C82.167 4.736 82.327 4.752 82.487 4.784C82.647 4.784 82.791 4.8 82.919 4.832C82.983 4.8 83.079 4.784 83.207 4.784C83.399 4.784 83.591 4.816 83.783 4.88C84.007 4.912 84.183 4.944 84.311 4.976C84.407 4.88 84.519 4.832 84.647 4.832C84.839 4.832 85.063 4.896 85.319 5.024C85.351 4.96 85.447 4.928 85.607 4.928C85.799 4.928 85.975 4.96 86.135 5.024C86.327 5.056 86.519 5.104 86.711 5.168L86.807 4.976C87.447 5.104 88.151 5.248 88.919 5.408C89.687 5.568 90.407 5.648 91.079 5.648C91.143 5.648 91.319 5.68 91.607 5.744C91.927 5.808 92.087 5.888 92.087 5.984C92.087 5.952 92.151 5.936 92.279 5.936C92.407 5.968 92.647 6.016 92.999 6.08C93.351 6.144 93.511 6.208 93.479 6.272C93.511 6.272 93.559 6.272 93.623 6.272C93.687 6.24 93.735 6.224 93.767 6.224C94.119 6.224 94.439 6.304 94.727 6.464C95.047 6.592 95.367 6.688 95.687 6.752V6.704L95.831 6.608C95.959 6.672 96.215 6.768 96.599 6.896C97.015 6.992 97.287 7.04 97.415 7.04C97.575 7.04 97.655 6.992 97.655 6.896L97.847 6.944L97.991 7.232L98.423 7.328V7.28C98.647 6.96 98.839 6.544 98.999 6.032C99.191 5.488 99.287 5.024 99.287 4.64C99.287 4.32 99.207 4.08 99.047 3.92C98.887 3.728 98.807 3.52 98.807 3.296C98.807 3.264 98.823 3.248 98.855 3.248L98.999 3.2C99.415 3.264 99.975 3.312 100.679 3.344C101.415 3.344 102.071 3.44 102.647 3.632C103.223 3.824 103.511 4.24 103.511 4.88C103.511 5.264 103.431 5.712 103.271 6.224C103.143 6.704 103.015 7.12 102.887 7.472C102.951 7.664 103.079 7.792 103.271 7.856C103.463 7.92 103.639 7.968 103.799 8L103.895 7.76L104.087 7.808V8L104.375 7.856C104.439 7.984 104.519 8.048 104.615 8.048C104.711 8.048 104.807 8.048 104.903 8.048H105.047L105.095 8.288C105.127 8.256 105.159 8.256 105.191 8.288L105.239 8.048C105.335 8.08 105.415 8.128 105.479 8.192C105.543 8.256 105.623 8.304 105.719 8.336C105.751 8.304 105.767 8.304 105.767 8.336C105.799 8.304 105.847 8.288 105.911 8.288C106.039 8.288 106.135 8.336 106.199 8.432C106.263 8.496 106.343 8.544 106.439 8.576L106.487 8.624L106.535 8.528L106.679 8.288C106.839 8.32 106.999 8.368 107.159 8.432C107.351 8.464 107.527 8.496 107.687 8.528L107.639 8.768H107.687C107.751 8.736 107.863 8.72 108.023 8.72C108.279 8.72 108.519 8.768 108.743 8.864C108.999 8.928 109.255 8.992 109.511 9.056C109.767 9.088 109.895 9.152 109.895 9.248C109.927 9.312 109.991 9.36 110.087 9.392V9.344C110.279 9.248 110.503 9.2 110.759 9.2C111.271 9.2 111.767 9.264 112.247 9.392C112.727 9.488 113.207 9.584 113.687 9.68C113.719 9.648 113.799 9.632 113.927 9.632C113.991 9.632 114.071 9.648 114.167 9.68C114.295 9.68 114.391 9.68 114.455 9.68C115.095 9.68 115.879 9.632 116.807 9.536C117.735 9.408 118.647 9.232 119.543 9.008C120.471 8.752 121.207 8.432 121.751 8.048C121.911 7.92 122.055 7.776 122.183 7.616C122.343 7.456 122.535 7.376 122.759 7.376C122.567 8.112 122.135 8.768 121.463 9.344C120.791 9.888 119.991 10.352 119.063 10.736C118.167 11.12 117.255 11.408 116.327 11.6C115.431 11.792 114.647 11.888 113.975 11.888C113.751 11.888 113.527 11.888 113.303 11.888C113.111 11.856 112.919 11.824 112.727 11.792C112.439 11.728 112.135 11.712 111.815 11.744C111.527 11.744 111.239 11.712 110.951 11.648C110.919 11.616 110.887 11.6 110.855 11.6C110.823 11.6 110.807 11.584 110.807 11.552L110.711 11.504C110.647 11.536 110.551 11.552 110.423 11.552C109.335 11.552 108.279 11.392 107.255 11.072C106.231 10.752 105.191 10.528 104.135 10.4L104.039 10.352H103.991C103.927 10.288 103.815 10.224 103.655 10.16C103.495 10.096 103.351 10.048 103.223 10.016L103.031 10.064H102.887C102.695 10.064 102.455 10.032 102.167 9.968C101.879 9.904 101.751 9.808 101.783 9.68C101.687 9.776 101.495 10.08 101.207 10.592C100.919 11.072 100.599 11.616 100.247 12.224C99.895 12.832 99.575 13.36 99.287 13.808C98.999 14.256 98.791 14.464 98.663 14.432C98.631 14.624 98.487 14.896 98.231 15.248C97.975 15.6 97.703 15.936 97.415 16.256C97.127 16.544 96.887 16.72 96.695 16.784L96.551 16.832H96.503C96.503 16.928 96.471 17.056 96.407 17.216C96.375 17.344 96.279 17.392 96.119 17.36C96.087 17.488 95.895 17.776 95.543 18.224C95.223 18.672 94.839 19.168 94.391 19.712C93.943 20.256 93.511 20.752 93.095 21.2C92.711 21.616 92.455 21.888 92.327 22.016V22.112C92.423 22.208 92.471 22.272 92.471 22.304C92.471 22.4 92.359 22.448 92.135 22.448C91.943 22.416 91.831 22.432 91.799 22.496C91.671 22.784 91.527 23.056 91.367 23.312C91.207 23.536 90.935 23.616 90.551 23.552L90.503 23.696L90.647 23.936C90.423 23.936 90.183 24.064 89.927 24.32C89.703 24.544 89.543 24.752 89.447 24.944L89.351 25.04L89.207 25.088V25.136C89.207 25.264 89.031 25.504 88.679 25.856C88.327 26.176 87.895 26.528 87.383 26.912C86.903 27.296 86.439 27.632 85.991 27.92C85.575 28.176 85.271 28.304 85.079 28.304H85.031V28.352C84.519 28.672 84.055 28.992 83.639 29.312C83.255 29.6 82.823 29.92 82.343 30.272L82.151 30.656C81.927 30.816 81.639 30.944 81.287 31.04C80.967 31.104 80.743 31.248 80.615 31.472C80.615 31.472 80.599 31.488 80.567 31.52C80.535 31.52 80.519 31.536 80.519 31.568C80.199 31.568 79.783 31.776 79.271 32.192C78.791 32.608 78.375 32.896 78.023 33.056C76.743 33.664 75.335 34.224 73.799 34.736C72.295 35.248 70.823 35.504 69.383 35.504Z" fill="#FCFCFC"/>
</svg>
